<svg width="512" height="512" viewBox="0 0 512 512" fill="none" xmlns="http://www.w3.org/2000/svg">
<rect x="128" width="64" height="64" fill="white"/>
<rect x="192" width="64" height="64" fill="white"/>
<rect x="256" width="64" height="64" fill="white"/>
<rect x="320" width="64" height="64" fill="white"/>
<rect x="320" y="256" width="64" height="64" fill="white"/>
<rect x="128" y="384" width="64" height="64" fill="white"/>
<rect x="192" y="384" width="64" height="64" fill="white"/>
<rect x="256" y="384" width="64" height="64" fill="white"/>
<rect x="128" y="448" width="64" height="64" fill="white"/>
<rect x="256" y="448" width="64" height="64" fill="white"/>
<rect x="192" y="256" width="64" height="64" fill="white"/>
<rect x="256" y="256" width="64" height="64" fill="white"/>
<rect x="128" y="64" width="64" height="64" fill="white"/>
<rect x="256" y="64" width="64" height="64" fill="white"/>
<rect x="320" y="64" width="64" height="64" fill="black"/>
<rect x="192" y="128" width="64" height="64" fill="white"/>
<rect x="256" y="128" width="64" height="64" fill="white"/>
<rect x="320" y="128" width="64" height="64" fill="white"/>
<rect x="128" y="192" width="64" height="64" fill="white"/>
<rect x="192" y="64" width="64" height="64" fill="black"/>
<rect x="128" y="256" width="64" height="64" fill="white"/>
<rect x="192" y="320" width="64" height="64" fill="white"/>
</svg>
