<svg id="meat" viewBox="0 0 512 512" xmlns="http://www.w3.org/2000/svg">
    <rect x="64" y="256" width="64" height="64" fill="#D91010"/>
    <rect x="128" y="256" width="64" height="64" fill="#D91010"/>
    <rect x="192" y="256" width="64" height="64" fill="#D91010"/>
    <rect x="256" y="256" width="64" height="64" fill="#D91010"/>
    <rect x="320" y="256" width="64" height="64" fill="#D91010"/>
    <rect x="384" y="256" width="64" height="64" fill="#D91010"/>
    <rect y="320" width="64" height="64" fill="#D91010"/>
    <rect x="64" y="320" width="64" height="64" fill="#D91010"/>
    <rect x="128" y="320" width="64" height="64" fill="#D91010"/>
    <rect x="192" y="320" width="64" height="64" fill="#D91010"/>
    <rect x="256" y="320" width="64" height="64" fill="#D91010"/>
    <rect x="320" y="320" width="64" height="64" fill="#D91010"/>
    <rect x="384" y="320" width="64" height="64" fill="#D91010"/>
    <rect x="448" y="320" width="64" height="64" fill="#D91010"/>
    <rect x="64" y="384" width="64" height="64" fill="#D91010"/>
    <rect x="128" y="384" width="64" height="64" fill="#D91010"/>
    <rect x="192" y="384" width="64" height="64" fill="#D91010"/>
    <rect x="256" y="384" width="64" height="64" fill="#D91010"/>
    <rect x="320" y="384" width="64" height="64" fill="#D91010"/>
    <rect x="384" y="384" width="64" height="64" fill="#D91010"/>
    <rect x="448" y="384" width="64" height="64" fill="#D91010"/>
    <rect x="128" y="448" width="64" height="64" fill="#D91010"/>
    <rect x="192" y="448" width="64" height="64" fill="#D91010"/>
    <rect x="256" y="448" width="64" height="64" fill="#D91010"/>
    <rect x="320" y="448" width="64" height="64" fill="#D91010"/>
</svg>
