<svg xmlns="http://www.w3.org/2000/svg">
    <symbol id="abandoned-trap-straight-bottom" viewBox="0 0 512 512">
        <g transform="rotate(0 256 256)">
            <rect width="64" height="64" fill="#4F772D"/>
            <rect x="64" width="64" height="64" fill="#4F772D"/>
            <rect x="128" width="64" height="64" fill="#4F772D"/>
            <rect x="192" width="64" height="64" fill="#4F772D"/>
            <rect x="256" width="64" height="64" fill="#4F772D"/>
            <rect x="320" width="64" height="64" fill="#4F772D"/>
            <rect x="384" width="64" height="64" fill="#4F772D"/>
            <rect x="448" width="64" height="64" fill="#4F772D"/>
            <rect y="64" width="64" height="64" fill="#710000"/>
            <rect x="64" y="64" width="64" height="64" fill="#710000"/>
            <rect x="128" y="64" width="64" height="64" fill="#710000"/>
            <rect x="192" y="64" width="64" height="64" fill="#710000"/>
            <rect x="256" y="64" width="64" height="64" fill="#710000"/>
            <rect x="320" y="64" width="64" height="64" fill="#710000"/>
            <rect x="384" y="64" width="64" height="64" fill="#710000"/>
            <rect x="448" y="64" width="64" height="64" fill="#710000"/>
            <rect y="128" width="64" height="64" fill="#590000"/>
            <rect x="64" y="128" width="64" height="64" fill="#590000"/>
            <rect x="128" y="128" width="64" height="64" fill="#590000"/>
            <rect x="192" y="128" width="64" height="64" fill="#590000"/>
            <rect x="256" y="128" width="64" height="64" fill="#590000"/>
            <rect x="320" y="128" width="64" height="64" fill="#590000"/>
            <rect x="384" y="128" width="64" height="64" fill="#590000"/>
            <rect x="448" y="128" width="64" height="64" fill="#590000"/>
            <rect y="192" width="64" height="64" fill="#590000"/>
            <rect x="64" y="192" width="64" height="64" fill="#590000"/>
            <rect x="128" y="192" width="64" height="64" fill="#590000"/>
            <rect x="192" y="192" width="64" height="64" fill="#590000"/>
            <rect x="256" y="192" width="64" height="64" fill="#590000"/>
            <rect x="320" y="192" width="64" height="64" fill="#590000"/>
            <rect x="384" y="192" width="64" height="64" fill="#590000"/>
            <rect x="448" y="192" width="64" height="64" fill="#590000"/>
            <rect y="256" width="64" height="64" fill="#590000"/>
            <rect x="64" y="256" width="64" height="64" fill="#590000"/>
            <rect x="128" y="256" width="64" height="64" fill="#590000"/>
            <rect x="192" y="256" width="64" height="64" fill="#590000"/>
            <rect x="256" y="256" width="64" height="64" fill="#590000"/>
            <rect x="320" y="256" width="64" height="64" fill="#590000"/>
            <rect x="384" y="256" width="64" height="64" fill="#590000"/>
            <rect x="448" y="256" width="64" height="64" fill="#590000"/>
            <rect y="320" width="64" height="64" fill="#590000"/>
            <rect x="64" y="320" width="64" height="64" fill="#590000"/>
            <rect x="128" y="320" width="64" height="64" fill="#590000"/>
            <rect x="192" y="320" width="64" height="64" fill="#590000"/>
            <rect x="256" y="320" width="64" height="64" fill="#590000"/>
            <rect x="320" y="320" width="64" height="64" fill="#590000"/>
            <rect x="384" y="320" width="64" height="64" fill="#590000"/>
            <rect x="448" y="320" width="64" height="64" fill="#590000"/>
            <rect y="384" width="64" height="64" fill="#590000"/>
            <rect x="64" y="384" width="64" height="64" fill="#590000"/>
            <rect x="128" y="384" width="64" height="64" fill="#590000"/>
            <rect x="192" y="384" width="64" height="64" fill="#590000"/>
            <rect x="256" y="384" width="64" height="64" fill="#590000"/>
            <rect x="320" y="384" width="64" height="64" fill="#590000"/>
            <rect x="384" y="384" width="64" height="64" fill="#590000"/>
            <rect x="448" y="384" width="64" height="64" fill="#590000"/>
            <rect y="448" width="64" height="64" fill="#710000"/>
            <rect x="64" y="448" width="64" height="64" fill="#710000"/>
            <rect x="128" y="448" width="64" height="64" fill="#710000"/>
            <rect x="192" y="448" width="64" height="64" fill="#710000"/>
            <rect x="256" y="448" width="64" height="64" fill="#710000"/>
            <rect x="320" y="448" width="64" height="64" fill="#710000"/>
            <rect x="384" y="448" width="64" height="64" fill="#710000"/>
            <rect x="448" y="448" width="64" height="64" fill="#710000"/>
        </g>
    </symbol>
    <symbol id="abandoned-trap-straight-left" viewBox="0 0 512 512">
        <g transform="rotate(90 256 256)">
            <rect width="64" height="64" fill="#4F772D"/>
            <rect x="64" width="64" height="64" fill="#4F772D"/>
            <rect x="128" width="64" height="64" fill="#4F772D"/>
            <rect x="192" width="64" height="64" fill="#4F772D"/>
            <rect x="256" width="64" height="64" fill="#4F772D"/>
            <rect x="320" width="64" height="64" fill="#4F772D"/>
            <rect x="384" width="64" height="64" fill="#4F772D"/>
            <rect x="448" width="64" height="64" fill="#4F772D"/>
            <rect y="64" width="64" height="64" fill="#710000"/>
            <rect x="64" y="64" width="64" height="64" fill="#710000"/>
            <rect x="128" y="64" width="64" height="64" fill="#710000"/>
            <rect x="192" y="64" width="64" height="64" fill="#710000"/>
            <rect x="256" y="64" width="64" height="64" fill="#710000"/>
            <rect x="320" y="64" width="64" height="64" fill="#710000"/>
            <rect x="384" y="64" width="64" height="64" fill="#710000"/>
            <rect x="448" y="64" width="64" height="64" fill="#710000"/>
            <rect y="128" width="64" height="64" fill="#590000"/>
            <rect x="64" y="128" width="64" height="64" fill="#590000"/>
            <rect x="128" y="128" width="64" height="64" fill="#590000"/>
            <rect x="192" y="128" width="64" height="64" fill="#590000"/>
            <rect x="256" y="128" width="64" height="64" fill="#590000"/>
            <rect x="320" y="128" width="64" height="64" fill="#590000"/>
            <rect x="384" y="128" width="64" height="64" fill="#590000"/>
            <rect x="448" y="128" width="64" height="64" fill="#590000"/>
            <rect y="192" width="64" height="64" fill="#590000"/>
            <rect x="64" y="192" width="64" height="64" fill="#590000"/>
            <rect x="128" y="192" width="64" height="64" fill="#590000"/>
            <rect x="192" y="192" width="64" height="64" fill="#590000"/>
            <rect x="256" y="192" width="64" height="64" fill="#590000"/>
            <rect x="320" y="192" width="64" height="64" fill="#590000"/>
            <rect x="384" y="192" width="64" height="64" fill="#590000"/>
            <rect x="448" y="192" width="64" height="64" fill="#590000"/>
            <rect y="256" width="64" height="64" fill="#590000"/>
            <rect x="64" y="256" width="64" height="64" fill="#590000"/>
            <rect x="128" y="256" width="64" height="64" fill="#590000"/>
            <rect x="192" y="256" width="64" height="64" fill="#590000"/>
            <rect x="256" y="256" width="64" height="64" fill="#590000"/>
            <rect x="320" y="256" width="64" height="64" fill="#590000"/>
            <rect x="384" y="256" width="64" height="64" fill="#590000"/>
            <rect x="448" y="256" width="64" height="64" fill="#590000"/>
            <rect y="320" width="64" height="64" fill="#590000"/>
            <rect x="64" y="320" width="64" height="64" fill="#590000"/>
            <rect x="128" y="320" width="64" height="64" fill="#590000"/>
            <rect x="192" y="320" width="64" height="64" fill="#590000"/>
            <rect x="256" y="320" width="64" height="64" fill="#590000"/>
            <rect x="320" y="320" width="64" height="64" fill="#590000"/>
            <rect x="384" y="320" width="64" height="64" fill="#590000"/>
            <rect x="448" y="320" width="64" height="64" fill="#590000"/>
            <rect y="384" width="64" height="64" fill="#590000"/>
            <rect x="64" y="384" width="64" height="64" fill="#590000"/>
            <rect x="128" y="384" width="64" height="64" fill="#590000"/>
            <rect x="192" y="384" width="64" height="64" fill="#590000"/>
            <rect x="256" y="384" width="64" height="64" fill="#590000"/>
            <rect x="320" y="384" width="64" height="64" fill="#590000"/>
            <rect x="384" y="384" width="64" height="64" fill="#590000"/>
            <rect x="448" y="384" width="64" height="64" fill="#590000"/>
            <rect y="448" width="64" height="64" fill="#710000"/>
            <rect x="64" y="448" width="64" height="64" fill="#710000"/>
            <rect x="128" y="448" width="64" height="64" fill="#710000"/>
            <rect x="192" y="448" width="64" height="64" fill="#710000"/>
            <rect x="256" y="448" width="64" height="64" fill="#710000"/>
            <rect x="320" y="448" width="64" height="64" fill="#710000"/>
            <rect x="384" y="448" width="64" height="64" fill="#710000"/>
            <rect x="448" y="448" width="64" height="64" fill="#710000"/>
        </g>
    </symbol>
    <symbol id="abandoned-trap-straight-top" viewBox="0 0 512 512">
        <g transform="rotate(180 256 256)">
            <rect width="64" height="64" fill="#4F772D"/>
            <rect x="64" width="64" height="64" fill="#4F772D"/>
            <rect x="128" width="64" height="64" fill="#4F772D"/>
            <rect x="192" width="64" height="64" fill="#4F772D"/>
            <rect x="256" width="64" height="64" fill="#4F772D"/>
            <rect x="320" width="64" height="64" fill="#4F772D"/>
            <rect x="384" width="64" height="64" fill="#4F772D"/>
            <rect x="448" width="64" height="64" fill="#4F772D"/>
            <rect y="64" width="64" height="64" fill="#710000"/>
            <rect x="64" y="64" width="64" height="64" fill="#710000"/>
            <rect x="128" y="64" width="64" height="64" fill="#710000"/>
            <rect x="192" y="64" width="64" height="64" fill="#710000"/>
            <rect x="256" y="64" width="64" height="64" fill="#710000"/>
            <rect x="320" y="64" width="64" height="64" fill="#710000"/>
            <rect x="384" y="64" width="64" height="64" fill="#710000"/>
            <rect x="448" y="64" width="64" height="64" fill="#710000"/>
            <rect y="128" width="64" height="64" fill="#590000"/>
            <rect x="64" y="128" width="64" height="64" fill="#590000"/>
            <rect x="128" y="128" width="64" height="64" fill="#590000"/>
            <rect x="192" y="128" width="64" height="64" fill="#590000"/>
            <rect x="256" y="128" width="64" height="64" fill="#590000"/>
            <rect x="320" y="128" width="64" height="64" fill="#590000"/>
            <rect x="384" y="128" width="64" height="64" fill="#590000"/>
            <rect x="448" y="128" width="64" height="64" fill="#590000"/>
            <rect y="192" width="64" height="64" fill="#590000"/>
            <rect x="64" y="192" width="64" height="64" fill="#590000"/>
            <rect x="128" y="192" width="64" height="64" fill="#590000"/>
            <rect x="192" y="192" width="64" height="64" fill="#590000"/>
            <rect x="256" y="192" width="64" height="64" fill="#590000"/>
            <rect x="320" y="192" width="64" height="64" fill="#590000"/>
            <rect x="384" y="192" width="64" height="64" fill="#590000"/>
            <rect x="448" y="192" width="64" height="64" fill="#590000"/>
            <rect y="256" width="64" height="64" fill="#590000"/>
            <rect x="64" y="256" width="64" height="64" fill="#590000"/>
            <rect x="128" y="256" width="64" height="64" fill="#590000"/>
            <rect x="192" y="256" width="64" height="64" fill="#590000"/>
            <rect x="256" y="256" width="64" height="64" fill="#590000"/>
            <rect x="320" y="256" width="64" height="64" fill="#590000"/>
            <rect x="384" y="256" width="64" height="64" fill="#590000"/>
            <rect x="448" y="256" width="64" height="64" fill="#590000"/>
            <rect y="320" width="64" height="64" fill="#590000"/>
            <rect x="64" y="320" width="64" height="64" fill="#590000"/>
            <rect x="128" y="320" width="64" height="64" fill="#590000"/>
            <rect x="192" y="320" width="64" height="64" fill="#590000"/>
            <rect x="256" y="320" width="64" height="64" fill="#590000"/>
            <rect x="320" y="320" width="64" height="64" fill="#590000"/>
            <rect x="384" y="320" width="64" height="64" fill="#590000"/>
            <rect x="448" y="320" width="64" height="64" fill="#590000"/>
            <rect y="384" width="64" height="64" fill="#590000"/>
            <rect x="64" y="384" width="64" height="64" fill="#590000"/>
            <rect x="128" y="384" width="64" height="64" fill="#590000"/>
            <rect x="192" y="384" width="64" height="64" fill="#590000"/>
            <rect x="256" y="384" width="64" height="64" fill="#590000"/>
            <rect x="320" y="384" width="64" height="64" fill="#590000"/>
            <rect x="384" y="384" width="64" height="64" fill="#590000"/>
            <rect x="448" y="384" width="64" height="64" fill="#590000"/>
            <rect y="448" width="64" height="64" fill="#710000"/>
            <rect x="64" y="448" width="64" height="64" fill="#710000"/>
            <rect x="128" y="448" width="64" height="64" fill="#710000"/>
            <rect x="192" y="448" width="64" height="64" fill="#710000"/>
            <rect x="256" y="448" width="64" height="64" fill="#710000"/>
            <rect x="320" y="448" width="64" height="64" fill="#710000"/>
            <rect x="384" y="448" width="64" height="64" fill="#710000"/>
            <rect x="448" y="448" width="64" height="64" fill="#710000"/>
        </g>
    </symbol>
    <symbol id="abandoned-trap-straight-right" viewBox="0 0 512 512">
        <g transform="rotate(270 256 256)">
            <rect width="64" height="64" fill="#4F772D"/>
            <rect x="64" width="64" height="64" fill="#4F772D"/>
            <rect x="128" width="64" height="64" fill="#4F772D"/>
            <rect x="192" width="64" height="64" fill="#4F772D"/>
            <rect x="256" width="64" height="64" fill="#4F772D"/>
            <rect x="320" width="64" height="64" fill="#4F772D"/>
            <rect x="384" width="64" height="64" fill="#4F772D"/>
            <rect x="448" width="64" height="64" fill="#4F772D"/>
            <rect y="64" width="64" height="64" fill="#710000"/>
            <rect x="64" y="64" width="64" height="64" fill="#710000"/>
            <rect x="128" y="64" width="64" height="64" fill="#710000"/>
            <rect x="192" y="64" width="64" height="64" fill="#710000"/>
            <rect x="256" y="64" width="64" height="64" fill="#710000"/>
            <rect x="320" y="64" width="64" height="64" fill="#710000"/>
            <rect x="384" y="64" width="64" height="64" fill="#710000"/>
            <rect x="448" y="64" width="64" height="64" fill="#710000"/>
            <rect y="128" width="64" height="64" fill="#590000"/>
            <rect x="64" y="128" width="64" height="64" fill="#590000"/>
            <rect x="128" y="128" width="64" height="64" fill="#590000"/>
            <rect x="192" y="128" width="64" height="64" fill="#590000"/>
            <rect x="256" y="128" width="64" height="64" fill="#590000"/>
            <rect x="320" y="128" width="64" height="64" fill="#590000"/>
            <rect x="384" y="128" width="64" height="64" fill="#590000"/>
            <rect x="448" y="128" width="64" height="64" fill="#590000"/>
            <rect y="192" width="64" height="64" fill="#590000"/>
            <rect x="64" y="192" width="64" height="64" fill="#590000"/>
            <rect x="128" y="192" width="64" height="64" fill="#590000"/>
            <rect x="192" y="192" width="64" height="64" fill="#590000"/>
            <rect x="256" y="192" width="64" height="64" fill="#590000"/>
            <rect x="320" y="192" width="64" height="64" fill="#590000"/>
            <rect x="384" y="192" width="64" height="64" fill="#590000"/>
            <rect x="448" y="192" width="64" height="64" fill="#590000"/>
            <rect y="256" width="64" height="64" fill="#590000"/>
            <rect x="64" y="256" width="64" height="64" fill="#590000"/>
            <rect x="128" y="256" width="64" height="64" fill="#590000"/>
            <rect x="192" y="256" width="64" height="64" fill="#590000"/>
            <rect x="256" y="256" width="64" height="64" fill="#590000"/>
            <rect x="320" y="256" width="64" height="64" fill="#590000"/>
            <rect x="384" y="256" width="64" height="64" fill="#590000"/>
            <rect x="448" y="256" width="64" height="64" fill="#590000"/>
            <rect y="320" width="64" height="64" fill="#590000"/>
            <rect x="64" y="320" width="64" height="64" fill="#590000"/>
            <rect x="128" y="320" width="64" height="64" fill="#590000"/>
            <rect x="192" y="320" width="64" height="64" fill="#590000"/>
            <rect x="256" y="320" width="64" height="64" fill="#590000"/>
            <rect x="320" y="320" width="64" height="64" fill="#590000"/>
            <rect x="384" y="320" width="64" height="64" fill="#590000"/>
            <rect x="448" y="320" width="64" height="64" fill="#590000"/>
            <rect y="384" width="64" height="64" fill="#590000"/>
            <rect x="64" y="384" width="64" height="64" fill="#590000"/>
            <rect x="128" y="384" width="64" height="64" fill="#590000"/>
            <rect x="192" y="384" width="64" height="64" fill="#590000"/>
            <rect x="256" y="384" width="64" height="64" fill="#590000"/>
            <rect x="320" y="384" width="64" height="64" fill="#590000"/>
            <rect x="384" y="384" width="64" height="64" fill="#590000"/>
            <rect x="448" y="384" width="64" height="64" fill="#590000"/>
            <rect y="448" width="64" height="64" fill="#710000"/>
            <rect x="64" y="448" width="64" height="64" fill="#710000"/>
            <rect x="128" y="448" width="64" height="64" fill="#710000"/>
            <rect x="192" y="448" width="64" height="64" fill="#710000"/>
            <rect x="256" y="448" width="64" height="64" fill="#710000"/>
            <rect x="320" y="448" width="64" height="64" fill="#710000"/>
            <rect x="384" y="448" width="64" height="64" fill="#710000"/>
            <rect x="448" y="448" width="64" height="64" fill="#710000"/>
        </g>
    </symbol>
</svg>
