<svg id="strength_potion" viewBox="0 0 512 512" xmlns="http://www.w3.org/2000/svg">
    <rect x="192" width="64" height="64" fill="#53300E"/>
    <rect x="256" width="64" height="64" fill="#53300E"/>
    <rect x="256" y="192" width="64" height="64" fill="#0034A4"/>
    <rect x="320" y="192" width="64" height="64" fill="#CFC2A4"/>
    <rect x="320" y="256" width="64" height="64" fill="#CFC2A4"/>
    <rect x="128" y="384" width="64" height="64" fill="#CFC2A4"/>
    <rect x="192" y="384" width="64" height="64" fill="#0034A4"/>
    <rect x="256" y="384" width="64" height="64" fill="#0034A4"/>
    <rect x="320" y="384" width="64" height="64" fill="#CFC2A4"/>
    <rect x="192" y="448" width="64" height="64" fill="#CFC2A4"/>
    <rect x="256" y="448" width="64" height="64" fill="#CFC2A4"/>
    <rect x="192" y="256" width="64" height="64" fill="#0034A4"/>
    <rect x="256" y="256" width="64" height="64" fill="#0034A4"/>
    <rect x="128" y="64" width="64" height="64" fill="#CFC2A4"/>
    <rect x="256" y="64" width="64" height="64" fill="#0084FF"/>
    <rect x="320" y="64" width="64" height="64" fill="#CFC2A4"/>
    <rect x="128" y="128" width="64" height="64" fill="#CFC2A4"/>
    <rect x="192" y="128" width="64" height="64" fill="#0034A4"/>
    <rect x="256" y="128" width="64" height="64" fill="#0034A4"/>
    <rect x="320" y="128" width="64" height="64" fill="#CFC2A4"/>
    <rect x="128" y="192" width="64" height="64" fill="#CFC2A4"/>
    <rect x="192" y="192" width="64" height="64" fill="#0034A4"/>
    <rect x="192" y="64" width="64" height="64" fill="#0084FF"/>
    <rect x="128" y="256" width="64" height="64" fill="#CFC2A4"/>
    <rect x="128" y="320" width="64" height="64" fill="#CFC2A4"/>
    <rect x="192" y="320" width="64" height="64" fill="#0034A4"/>
    <rect x="256" y="320" width="64" height="64" fill="#0034A4"/>
    <rect x="320" y="320" width="64" height="64" fill="#CFC2A4"/>
</svg>
