<svg width="24" height="24" viewBox="0 0 24 24" fill="none" xmlns="http://www.w3.org/2000/svg">
<path d="M8.5 17C8.91667 17 9.27083 16.8542 9.5625 16.5625C9.85417 16.2708 10 15.9167 10 15.5C10 15.0833 9.85417 14.7292 9.5625 14.4375C9.27083 14.1458 8.91667 14 8.5 14C8.08333 14 7.72917 14.1458 7.4375 14.4375C7.14583 14.7292 7 15.0833 7 15.5C7 15.9167 7.14583 16.2708 7.4375 16.5625C7.72917 16.8542 8.08333 17 8.5 17ZM8.5 10C8.91667 10 9.27083 9.85417 9.5625 9.5625C9.85417 9.27083 10 8.91667 10 8.5C10 8.08333 9.85417 7.72917 9.5625 7.4375C9.27083 7.14583 8.91667 7 8.5 7C8.08333 7 7.72917 7.14583 7.4375 7.4375C7.14583 7.72917 7 8.08333 7 8.5C7 8.91667 7.14583 9.27083 7.4375 9.5625C7.72917 9.85417 8.08333 10 8.5 10ZM15.5 17C15.9167 17 16.2708 16.8542 16.5625 16.5625C16.8542 16.2708 17 15.9167 17 15.5C17 15.0833 16.8542 14.7292 16.5625 14.4375C16.2708 14.1458 15.9167 14 15.5 14C15.0833 14 14.7292 14.1458 14.4375 14.4375C14.1458 14.7292 14 15.0833 14 15.5C14 15.9167 14.1458 16.2708 14.4375 16.5625C14.7292 16.8542 15.0833 17 15.5 17ZM15.5 10C15.9167 10 16.2708 9.85417 16.5625 9.5625C16.8542 9.27083 17 8.91667 17 8.5C17 8.08333 16.8542 7.72917 16.5625 7.4375C16.2708 7.14583 15.9167 7 15.5 7C15.0833 7 14.7292 7.14583 14.4375 7.4375C14.1458 7.72917 14 8.08333 14 8.5C14 8.91667 14.1458 9.27083 14.4375 9.5625C14.7292 9.85417 15.0833 10 15.5 10ZM5 21C4.45 21 3.97917 20.8042 3.5875 20.4125C3.19583 20.0208 3 19.55 3 19V5C3 4.45 3.19583 3.97917 3.5875 3.5875C3.97917 3.19583 4.45 3 5 3H19C19.55 3 20.0208 3.19583 20.4125 3.5875C20.8042 3.97917 21 4.45 21 5V19C21 19.55 20.8042 20.0208 20.4125 20.4125C20.0208 20.8042 19.55 21 19 21H5Z" fill="black"/>
</svg>
