<svg width="24" height="24" viewBox="0 0 24 24" fill="none" xmlns="http://www.w3.org/2000/svg">
<g clip-path="url(#clip0_3837_20328)">
<path d="M13 24C9.73999 24 6.80999 22.01 5.59999 18.98L2.56999 11.37C2.25999 10.58 2.99999 9.79 3.80999 10.05L4.59999 10.31C5.15999 10.49 5.61999 10.92 5.83999 11.47L7.24999 15H7.99999V3.25C7.99999 2.56 8.55999 2 9.24999 2C9.93999 2 10.5 2.56 10.5 3.25V12H11.5V1.25C11.5 0.56 12.06 0 12.75 0C13.44 0 14 0.56 14 1.25V12H15V2.75C15 2.06 15.56 1.5 16.25 1.5C16.94 1.5 17.5 2.06 17.5 2.75V12H18.5V5.75C18.5 5.06 19.06 4.5 19.75 4.5C20.44 4.5 21 5.06 21 5.75V16C21 20.42 17.42 24 13 24Z" fill="black"/>
</g>
<defs>
<clipPath id="clip0_3837_20328">
<rect width="24" height="24" fill="white"/>
</clipPath>
</defs>
</svg>
