<svg width="512" height="512" viewBox="0 0 512 512" fill="none" xmlns="http://www.w3.org/2000/svg">
<rect x="320" width="64" height="64" fill="black"/>
<rect x="384" width="64" height="64" fill="black"/>
<rect x="448" width="64" height="64" fill="black"/>
<rect x="384" y="64" width="64" height="64" fill="#CEFFF7"/>
<rect x="448" y="64" width="64" height="64" fill="black"/>
<rect x="384" y="128" width="64" height="64" fill="black"/>
<rect y="192" width="64" height="64" fill="black"/>
<rect x="256" y="192" width="64" height="64" fill="#CEFFF7"/>
<rect x="320" y="192" width="64" height="64" fill="black"/>
<rect y="256" width="64" height="64" fill="black"/>
<rect x="64" y="256" width="64" height="64" fill="black"/>
<rect x="64" y="320" width="64" height="64" fill="black"/>
<rect y="384" width="64" height="64" fill="#53300E"/>
<rect x="64" y="384" width="64" height="64" fill="#AD500E"/>
<rect x="128" y="384" width="64" height="64" fill="black"/>
<rect x="192" y="384" width="64" height="64" fill="black"/>
<rect x="256" y="384" width="64" height="64" fill="black"/>
<rect y="448" width="64" height="64" fill="#53300E"/>
<rect x="64" y="448" width="64" height="64" fill="#53300E"/>
<rect x="192" y="256" width="64" height="64" fill="#CEFFF7"/>
<rect x="256" y="256" width="64" height="64" fill="black"/>
<rect x="256" y="64" width="64" height="64" fill="black"/>
<rect x="320" y="64" width="64" height="64" fill="#CEFFF7"/>
<rect x="192" y="128" width="64" height="64" fill="black"/>
<rect x="256" y="128" width="64" height="64" fill="#CEFFF7"/>
<rect x="320" y="128" width="64" height="64" fill="#CEFFF7"/>
<rect x="128" y="192" width="64" height="64" fill="black"/>
<rect x="192" y="192" width="64" height="64" fill="#CEFFF7"/>
<rect x="128" y="256" width="64" height="64" fill="#CEFFF7"/>
<rect x="128" y="320" width="64" height="64" fill="#CEFFF7"/>
<rect x="192" y="320" width="64" height="64" fill="black"/>
</svg>
